<svg width="90" height="51" viewBox="0 0 90 51" fill="none" xmlns="http://www.w3.org/2000/svg">
<path d="M23.861 34.4228V50.4236C23.861 50.8728 23.3737 51.1535 22.9989 50.9102C14.5286 45.6327 8.86914 36.2007 8.86914 25.496C8.86914 14.7914 14.5098 5.37805 22.9802 0.0818755C23.355 -0.142697 23.8422 0.138019 23.8422 0.56845V16.588C23.8422 17.1868 24.6668 17.374 24.9104 16.8313C28.2648 9.08351 35.9856 3.63761 44.9807 3.63761C53.9758 3.63761 61.7341 9.08351 65.0885 16.8687C65.3322 17.4114 66.1567 17.2243 66.1567 16.6254L66.2317 0.56845C66.2317 0.119304 66.7377 -0.142697 67.0937 0.0818755C75.5454 5.39677 81.1673 14.8475 81.1111 25.5709C81.0736 36.2943 75.3767 45.6515 66.8688 50.8915C66.494 51.1161 66.0068 50.8353 66.0068 50.4049L66.0818 34.5351C66.0818 33.9362 65.2572 33.7491 65.0136 34.2918C61.6217 41.9647 53.9196 47.3358 44.9807 47.3358C36.0419 47.3358 28.2648 41.9086 24.9104 34.1608C24.6668 33.6181 23.8422 33.8052 23.8422 34.4041L23.861 34.4228Z" fill="#3F69DC"/>
<path d="M82.5227 41.1601L82.6163 9.85088C82.6163 9.38302 83.1785 9.1023 83.5346 9.42045C87.4512 12.9388 90.0186 18.8712 89.9998 25.5523C89.9811 32.2333 87.3762 38.1284 83.4222 41.5905C83.0661 41.9087 82.5039 41.6279 82.5039 41.1601H82.5227Z" fill="#3F69DC"/>
<path d="M7.42096 9.73849L7.47718 41.0477C7.47718 41.5156 6.91499 41.7963 6.55893 41.4781C2.62357 37.9785 0.0187398 32.0648 0 25.365C0 18.684 2.56735 12.7889 6.48397 9.28935C6.84003 8.9712 7.40222 9.25192 7.40222 9.71978L7.42096 9.73849Z" fill="#3F69DC"/>
</svg>

