<svg width="598" height="110" viewBox="0 0 598 110" fill="none" xmlns="http://www.w3.org/2000/svg">
<g clip-path="url(#clip0_1786_12)">
<path d="M54.395 57.4635C51.9721 55.7675 49.2261 54.3541 46.1975 53.2235C43.1689 52.0928 40.0191 51.164 36.8289 50.4371C32.5484 49.3064 28.9545 48.2565 26.0874 47.2873C23.2203 46.3182 20.9185 45.3086 19.2225 44.2587C17.5264 43.2088 16.315 42.0781 15.5881 40.8262C14.8612 39.5744 14.4978 38.1207 14.4978 36.4246C14.4978 32.548 16.0727 29.6809 19.2225 27.8637C22.3722 26.0465 26.1681 25.1581 30.6101 25.1581C35.779 25.1581 39.9787 26.3292 43.2092 28.7117C46.4398 31.0942 48.1762 35.0516 48.4185 40.5032H59.3216C59.4831 32.6691 57.141 26.4099 52.3355 21.7257C47.5301 17.0414 40.4229 14.6992 31.0947 14.6992C25.0374 14.6992 19.8686 15.7088 15.6285 17.6471C11.3884 19.6258 8.19822 22.2506 6.01761 25.5215C3.83699 28.7925 2.74668 32.4268 2.74668 36.3842C2.74668 40.0994 3.5947 43.2895 5.3715 45.874C7.10792 48.4988 9.40968 50.7602 12.2768 52.6177C15.1439 54.4753 18.2937 56.0502 21.7261 57.302C25.1586 58.5538 28.6314 59.6442 32.185 60.4922C36.2232 61.4613 39.6153 62.4709 42.3612 63.4804C45.1072 64.49 47.1667 65.7418 48.5396 67.2359C49.9126 68.7301 50.5991 70.7491 50.5991 73.2528C50.5991 75.7565 49.953 77.8967 48.7415 79.7139C47.4897 81.5311 45.5918 82.9848 43.0881 84.0348C40.5844 85.0847 37.4346 85.6097 33.6388 85.6097C29.2775 85.6097 25.4413 84.8828 22.2107 83.429C18.9398 81.9753 16.3553 79.9966 14.4574 77.4121C12.5595 74.8681 11.4691 72.0414 11.2672 68.8916H0.121865C-0.120426 70.3453 0.0411016 72.2029 0.566065 74.4643C1.09103 76.7257 2.10057 79.1082 3.5947 81.6119C5.08883 84.1155 7.1483 86.4577 9.77311 88.6383C12.3979 90.8189 15.6689 92.5957 19.5859 93.9687C23.5029 95.3417 28.1468 96.0282 33.4368 96.0282C40.1402 96.0282 45.6321 95.0186 49.8722 93.0399C54.1123 91.0612 57.2621 88.396 59.2812 85.0443C61.3003 81.6926 62.3098 77.9775 62.3098 73.8182C62.3098 69.9415 61.583 66.6706 60.1696 64.0054C58.7562 61.3402 56.8179 59.1596 54.4354 57.4635H54.395Z" fill="#030E23"/>
<path d="M381.285 77.7346L329.798 16.0312H318.168V94.6546H329.798V33.1531L381.285 94.6546H393.036V16.0312H381.285V77.7346Z" fill="#030E23"/>
<path d="M453.164 16.0312L421.061 94.6546H433.539L441.211 75.1502H477.514L485.227 94.6546H497.826L465.481 16.0312H453.124H453.164ZM445.33 64.7317L459.342 29.1957L473.436 64.7317H445.33Z" fill="#030E23"/>
<path d="M586.264 60.2493C584.043 59.6436 581.458 59.1994 578.51 58.9571C580.408 58.6744 582.225 58.2706 583.921 57.7053C586.667 56.8169 589.05 55.565 591.069 53.9497C593.088 52.3345 594.663 50.3154 595.834 47.8521C597.005 45.3888 597.611 42.4006 597.611 38.8066C597.611 33.6377 596.521 29.3976 594.34 26.0056C592.159 22.6539 589.01 20.1502 584.931 18.4945C580.852 16.8389 576.007 16.0312 570.353 16.0312H529.891V94.6546H541.521V63.3991H566.598C571.282 63.3991 574.916 63.7625 577.501 64.4894C580.085 65.2163 581.902 66.4681 582.952 68.2449C584.002 70.0217 584.527 72.485 584.527 75.6348V94.6546H596.278V75.2713C596.278 70.7486 595.39 67.3565 593.653 65.0144C591.917 62.6722 589.454 61.1377 586.223 60.2493H586.264ZM541.561 53.2229V26.5709H570.394C575.562 26.5709 579.439 27.6612 582.064 29.8418C584.689 32.0224 585.981 35.1318 585.981 39.17C585.981 43.2082 584.648 46.7618 582.064 49.3462C579.439 51.9307 575.522 53.2229 570.394 53.2229H541.561Z" fill="#030E23"/>
<path d="M140.206 74.2616V108.788C140.206 109.757 139.156 110.363 138.348 109.838C120.096 98.4503 107.9 78.0979 107.9 54.9995C107.9 31.9011 120.055 11.5891 138.308 0.161045C139.116 -0.323536 140.165 0.282191 140.165 1.21097V35.7778C140.165 37.07 141.942 37.4738 142.467 36.3027C149.696 19.5847 166.333 7.83359 185.716 7.83359C205.099 7.83359 221.817 19.5847 229.046 36.3835C229.571 37.5546 231.348 37.1508 231.348 35.8586L231.509 1.21097C231.509 0.241809 232.599 -0.323536 233.367 0.161045C251.579 11.6295 263.693 32.0223 263.572 55.161C263.491 78.2998 251.215 98.4907 232.882 109.798C232.074 110.282 231.024 109.676 231.024 108.748L231.186 74.5039C231.186 73.2117 229.409 72.8079 228.884 73.979C221.575 90.5355 204.978 102.125 185.716 102.125C166.454 102.125 149.696 90.4144 142.467 73.6963C141.942 72.5252 140.165 72.929 140.165 74.2213L140.206 74.2616Z" fill="#030E23"/>
<path d="M266.439 88.7991L266.641 21.2403C266.641 20.2308 267.852 19.6251 268.619 20.3115C277.059 27.9033 282.592 40.7043 282.551 55.1206C282.511 69.5369 276.898 82.2572 268.377 89.7278C267.61 90.4143 266.398 89.8086 266.398 88.7991H266.439Z" fill="#030E23"/>
<path d="M104.872 20.9985L104.993 88.5572C104.993 89.5668 103.782 90.1725 103.014 89.486C94.5343 81.9346 88.9212 69.174 88.8809 54.7173C88.8809 40.301 94.4132 27.5807 102.853 20.0293C103.62 19.3428 104.832 19.9486 104.832 20.9581L104.872 20.9985Z" fill="#030E23"/>
</g>
<defs>
<clipPath id="clip0_1786_12">
<rect width="597.651" height="110" fill="white"/>
</clipPath>
</defs>
</svg>
